<svg width="150" height="150" viewBox="0 0 150 150" fill="none" xmlns="http://www.w3.org/2000/svg">
<circle cx="75" cy="75" r="60" fill="#69B9FF"/>
<g clip-path="url(#clip0_243_44)">
<path d="M104.268 45.7317C103.291 44.7554 101.708 44.7554 100.732 45.7317L82.4999 63.964V52.4995C82.4999 51.1188 81.3807 49.9996 80 49.9996C78.6193 49.9996 77.5 51.1188 77.5 52.4995V69.9995C77.5 70.0003 77.5001 70.0013 77.5001 70.0021C77.5002 70.0835 77.5045 70.165 77.5124 70.2462C77.5161 70.2834 77.5231 70.3197 77.5284 70.3563C77.5347 70.4003 77.5398 70.4442 77.5484 70.4878C77.5567 70.5299 77.5683 70.5708 77.5787 70.6122C77.5882 70.6499 77.5964 70.6877 77.6078 70.7251C77.6201 70.7657 77.6352 70.8048 77.6495 70.8444C77.6629 70.8817 77.6752 70.9193 77.6904 70.9561C77.7058 70.9931 77.7237 71.0285 77.7408 71.0646C77.7586 71.1025 77.7755 71.1407 77.7953 71.1778C77.8138 71.2124 77.8349 71.2452 77.855 71.2787C77.8768 71.3152 77.8973 71.3521 77.9211 71.3876C77.9458 71.4246 77.9734 71.4594 78 71.495C78.0223 71.5247 78.0428 71.5552 78.0666 71.584C78.1711 71.7114 78.288 71.8283 78.4155 71.9329C78.4443 71.9565 78.4748 71.9772 78.5044 71.9994C78.54 72.0261 78.5748 72.0537 78.6119 72.0784C78.6474 72.1022 78.6843 72.1228 78.7207 72.1445C78.7543 72.1645 78.7871 72.1856 78.8216 72.2041C78.8588 72.224 78.897 72.2408 78.9348 72.2586C78.9709 72.2756 79.0064 72.2937 79.0434 72.309C79.0802 72.3243 79.1178 72.3366 79.155 72.3499C79.1946 72.3642 79.2338 72.3793 79.2743 72.3916C79.3116 72.4029 79.3496 72.4112 79.3873 72.4207C79.4287 72.4311 79.4695 72.4427 79.5116 72.4511C79.5552 72.4597 79.5993 72.4649 79.6431 72.4711C79.6799 72.4764 79.716 72.4833 79.7533 72.487C79.8345 72.495 79.9159 72.4993 79.9974 72.4993C79.9982 72.4993 79.9991 72.4995 80 72.4995H97.4999C98.8806 72.4995 99.9999 71.3802 99.9999 69.9995C99.9999 68.6188 98.8806 67.4995 97.4999 67.4995H86.0355L104.268 49.2673C105.244 48.291 105.244 46.7081 104.268 45.7317Z" fill="white"/>
<path d="M72.4875 79.7533C72.4839 79.716 72.4769 79.6798 72.4716 79.6431C72.4653 79.5992 72.4601 79.5552 72.4516 79.5116C72.4432 79.4696 72.4316 79.4287 72.4212 79.3873C72.4117 79.3496 72.4035 79.3117 72.3921 79.2743C72.3798 79.2338 72.3647 79.1946 72.3504 79.155C72.3371 79.1178 72.3248 79.0802 72.3095 79.0434C72.2942 79.0063 72.2762 78.9709 72.2591 78.9348C72.2413 78.897 72.2244 78.8588 72.2046 78.8216C72.1861 78.7871 72.165 78.7543 72.145 78.7207C72.1232 78.6843 72.1027 78.6474 72.0789 78.6119C72.0542 78.5748 72.0265 78.54 71.9999 78.5044C71.9776 78.4748 71.9571 78.4443 71.9333 78.4155C71.8288 78.2881 71.712 78.1711 71.5845 78.0666C71.5557 78.0429 71.5252 78.0223 71.4955 78C71.4599 77.9733 71.4251 77.9458 71.3881 77.9211C71.3526 77.8973 71.3157 77.8766 71.2792 77.855C71.2457 77.8349 71.2129 77.8138 71.1783 77.7953C71.1412 77.7755 71.103 77.7586 71.0651 77.7408C71.029 77.7238 70.9935 77.7058 70.9566 77.6904C70.9198 77.6752 70.8822 77.6629 70.8449 77.6495C70.8053 77.6352 70.7662 77.6201 70.7256 77.6078C70.6883 77.5966 70.6504 77.5882 70.6126 77.5787C70.5713 77.5683 70.5305 77.5567 70.4883 77.5484C70.4447 77.5397 70.4007 77.5346 70.3568 77.5284C70.32 77.5231 70.2839 77.5162 70.2467 77.5124C70.1646 77.5043 70.0824 77.5 70 77.5H52.5C51.1193 77.5 50.0001 78.6193 50.0001 80C50.0001 81.3807 51.1193 82.4999 52.5 82.4999H63.9645L45.7322 100.732C44.7559 101.708 44.7559 103.291 45.7322 104.268C46.7085 105.244 48.2915 105.244 49.2678 104.268L67.5 86.0355V97.4999C67.5 98.8806 68.6193 99.9999 70 99.9999C71.3807 99.9999 72.5 98.8806 72.5 97.4999V80C72.5001 79.9176 72.4956 79.8353 72.4875 79.7533Z" fill="white"/>
</g>
<defs>
<clipPath id="clip0_243_44">
<rect width="60" height="60" fill="white" transform="translate(45 45)"/>
</clipPath>
</defs>
</svg>
