<svg width="150" height="150" viewBox="0 0 150 150" fill="none" xmlns="http://www.w3.org/2000/svg">
<circle cx="75" cy="75" r="60" fill="#69B9FF"/>
<path d="M75.6251 72.0065C73.5274 71.9845 71.4831 71.3423 69.7496 70.1608C68.0161 68.9793 66.6709 67.3113 65.8834 65.3669C65.0959 63.4225 64.9013 61.2886 65.3241 59.2338C65.7468 57.179 66.768 55.2952 68.2592 53.8196C69.7503 52.344 71.6447 51.3426 73.7038 50.9414C75.7629 50.5401 77.8947 50.7571 79.8307 51.5649C81.7668 52.3727 83.4205 53.7353 84.5838 55.4811C85.7471 57.2268 86.3679 59.2777 86.368 61.3755C86.3483 64.2084 85.2065 66.9179 83.1929 68.9105C81.1793 70.9032 78.4579 72.0165 75.6251 72.0065ZM75.6251 54.4747C74.2652 54.4968 72.9422 54.9202 71.8221 55.6917C70.7021 56.4633 69.8351 57.5486 69.3299 58.8113C68.8247 60.0741 68.7039 61.4579 68.9827 62.7891C69.2614 64.1203 69.9273 65.3394 70.8967 66.2933C71.8662 67.2473 73.0958 67.8935 74.4313 68.1508C75.7668 68.4081 77.1485 68.2651 78.403 67.7397C79.6575 67.2142 80.7287 66.3298 81.4821 65.1976C82.2356 64.0653 82.6376 62.7356 82.6378 61.3755C82.6181 59.532 81.8694 57.7713 80.5553 56.4782C79.2412 55.185 77.4687 54.4647 75.6251 54.4747V54.4747Z" fill="white"/>
<path d="M75.6251 72.0065C73.5274 71.9845 71.4831 71.3423 69.7496 70.1608C68.0161 68.9793 66.6709 67.3113 65.8834 65.3669C65.0959 63.4225 64.9013 61.2886 65.3241 59.2338C65.7468 57.179 66.768 55.2952 68.2592 53.8196C69.7503 52.344 71.6447 51.3426 73.7038 50.9414C75.7629 50.5401 77.8947 50.7571 79.8307 51.5649C81.7668 52.3727 83.4205 53.7353 84.5838 55.4811C85.7471 57.2268 86.3679 59.2777 86.368 61.3755C86.3483 64.2084 85.2065 66.9179 83.1929 68.9105C81.1793 70.9032 78.4579 72.0165 75.6251 72.0065ZM75.6251 54.4747C74.2652 54.4968 72.9422 54.9202 71.8221 55.6917C70.7021 56.4633 69.8351 57.5486 69.3299 58.8113C68.8247 60.0741 68.7039 61.4579 68.9827 62.7891C69.2614 64.1203 69.9273 65.3394 70.8967 66.2933C71.8662 67.2473 73.0958 67.8935 74.4313 68.1508C75.7668 68.4081 77.1485 68.2651 78.403 67.7397C79.6575 67.2142 80.7287 66.3298 81.4821 65.1976C82.2356 64.0653 82.6376 62.7356 82.6378 61.3755C82.6181 59.532 81.8694 57.7713 80.5553 56.4782C79.2412 55.185 77.4687 54.4647 75.6251 54.4747V54.4747Z" fill="white"/>
<path d="M82.1338 74.5059C73.8613 73.0664 65.3449 74.3766 57.8877 78.236C57.3583 78.53 56.92 78.9638 56.6206 79.4901C56.3213 80.0164 56.1724 80.615 56.1904 81.2202V87.8599C56.1904 88.3545 56.3869 88.8289 56.7367 89.1787C57.0865 89.5285 57.5609 89.725 58.0555 89.725C58.5502 89.725 59.0246 89.5285 59.3743 89.1787C59.7241 88.8289 59.9206 88.3545 59.9206 87.8599V81.4626C66.8357 77.9929 74.6995 76.892 82.3017 78.3293L82.1338 74.5059Z" fill="white"/>
<path d="M102.818 82.6191H90.3217V79.8587C90.3217 79.3641 90.1252 78.8897 89.7755 78.5399C89.4257 78.1902 88.9513 77.9937 88.4567 77.9937C87.962 77.9937 87.4876 78.1902 87.1378 78.5399C86.7881 78.8897 86.5916 79.3641 86.5916 79.8587V82.6191H72.9764C72.4818 82.6191 72.0074 82.8156 71.6576 83.1653C71.3078 83.5151 71.1113 83.9895 71.1113 84.4842V103.135C71.1113 103.63 71.3078 104.104 71.6576 104.454C72.0074 104.804 72.4818 105 72.9764 105H102.818C103.313 105 103.787 104.804 104.137 104.454C104.486 104.104 104.683 103.63 104.683 103.135V84.4842C104.683 83.9895 104.486 83.5151 104.137 83.1653C103.787 82.8156 103.313 82.6191 102.818 82.6191ZM100.953 101.27H74.8415V86.3493H86.5916V87.1139C86.5916 87.6086 86.7881 88.083 87.1378 88.4328C87.4876 88.7825 87.962 88.979 88.4567 88.979C88.9513 88.979 89.4257 88.7825 89.7755 88.4328C90.1252 88.083 90.3217 87.6086 90.3217 87.1139V86.3493H100.953V101.27Z" fill="white"/>
<path d="M93.0632 92.7275H81.9473V95.3387H93.0632V92.7275Z" fill="white"/>
<path d="M61.4874 64.4155C56.3238 64.5019 51.2497 65.7784 46.6599 68.1457C46.1608 68.4094 45.7426 68.8037 45.4503 69.2867C45.1579 69.7696 45.0023 70.3229 45 70.8874V76.6692C45 77.1638 45.1965 77.6382 45.5463 77.988C45.896 78.3378 46.3704 78.5343 46.8651 78.5343C47.3597 78.5343 47.8341 78.3378 48.1839 77.988C48.5337 77.6382 48.7302 77.1638 48.7302 76.6692V71.2604C53.1156 69.0775 57.9709 68.0078 62.8676 68.1457C62.2269 66.9768 61.7619 65.7199 61.4874 64.4155V64.4155Z" fill="white"/>
<path d="M103.023 68.1272C98.9063 65.9678 94.3822 64.697 89.7434 64.397C89.4702 65.6991 89.0117 66.9552 88.3818 68.1272C92.7519 68.2317 97.0447 69.3018 100.953 71.2605V76.6693C100.953 77.1639 101.149 77.6383 101.499 77.9881C101.849 78.3379 102.323 78.5344 102.818 78.5344C103.312 78.5344 103.787 78.3379 104.136 77.9881C104.486 77.6383 104.683 77.1639 104.683 76.6693V70.8875C104.684 70.3198 104.53 69.7626 104.237 69.2761C103.945 68.7896 103.525 68.3923 103.023 68.1272V68.1272Z" fill="white"/>
<path d="M61.1518 61.3758C61.1518 60.9468 61.1518 60.5365 61.1518 60.1262C59.6907 59.9306 58.3613 59.1791 57.4404 58.0281C56.5194 56.8771 56.0779 55.4152 56.2077 53.9468C56.3375 52.4785 57.0285 51.1167 58.1371 50.145C59.2456 49.1734 60.6862 48.6667 62.1589 48.7305C63.6908 48.7277 65.1631 49.3233 66.2621 50.3904C67.2318 49.5906 68.2968 48.914 69.4328 48.3761C68.1638 46.917 66.4825 45.8766 64.6104 45.3921C62.7383 44.9076 60.7633 45.0017 58.9458 45.6621C57.1283 46.3225 55.5536 47.518 54.4291 49.0913C53.3047 50.6645 52.6833 52.5415 52.647 54.4749C52.6861 56.8413 53.606 59.108 55.227 60.8325C56.8479 62.5569 59.0535 63.6151 61.4129 63.8004C61.2547 63.0014 61.1673 62.1901 61.1518 61.3758V61.3758Z" fill="white"/>
<path d="M87.4676 45.0001C86.1859 45.0004 84.9171 45.2562 83.7354 45.7525C82.5538 46.2489 81.4829 46.9759 80.5854 47.891C81.8463 48.3479 83.0386 48.9754 84.1291 49.7561C84.9998 49.1516 86.0183 48.7948 87.0758 48.7237C88.1334 48.6526 89.1904 48.8699 90.1342 49.3523C91.078 49.8347 91.8731 50.5642 92.4349 51.4631C92.9966 52.3619 93.3039 53.3963 93.324 54.4561C93.3123 55.5446 92.9925 56.6076 92.4016 57.5219C91.8108 58.4362 90.9731 59.1645 89.9855 59.6224C90.0605 60.1975 90.0979 60.7769 90.0974 61.3569C90.0924 62.1066 90.0301 62.8548 89.9109 63.595C91.9427 63.0727 93.7448 61.8933 95.0368 60.2404C96.3287 58.5875 97.038 56.5539 97.0542 54.4561C97.0296 51.9332 96.0075 49.5225 94.2113 47.7508C92.415 45.979 89.9906 44.9901 87.4676 45.0001V45.0001Z" fill="white"/>
</svg>
