<svg width="150" height="150" viewBox="0 0 150 150" fill="none" xmlns="http://www.w3.org/2000/svg">
<circle cx="75" cy="75" r="60" fill="#69B9FF"/>
<path d="M103.096 45H46.9033V80.6857H53.8448V87.4491C53.8448 95.4321 57.8492 103.559 58.0196 103.901L58.5672 105H91.4326L91.9803 103.901C92.1507 103.559 96.155 95.4321 96.155 87.4491V80.6857H103.096V45ZM99.1299 55.5306C95.881 54.7768 93.3197 52.2153 92.5659 48.9666H99.1299V55.5306V55.5306ZM88.5251 76.7191H65.4801V71.7774C65.4801 68.5695 62.8704 65.9598 59.6625 65.9598C58.0036 65.9598 56.5059 66.6588 55.4451 67.7763C54.0425 66.934 52.4891 66.3726 50.8699 66.1179V59.5713C56.3111 58.7173 60.6207 54.4078 61.4747 48.9666H88.5251C89.3791 54.4078 93.6885 58.7173 99.1299 59.5713V66.1145C93.6887 66.9683 89.3791 71.2779 88.5251 76.7191ZM57.4339 48.9666C56.6801 52.2153 54.1187 54.7768 50.8699 55.5306V48.9666H57.4339ZM50.8699 76.7191V70.1531C51.9358 70.4 52.9473 70.8462 53.8532 71.4686C53.8477 71.5709 53.8448 71.6738 53.8448 71.7774V76.7191H50.8699V76.7191ZM61.0693 101.033C60.0456 98.674 57.8114 92.8992 57.8114 87.4491V71.7774C57.8114 70.7567 58.6417 69.9264 59.6625 69.9264C60.6832 69.9264 61.5135 70.7567 61.5135 71.7774V89.941H63.4968C70.0326 89.941 75.4639 94.7613 76.4223 101.033H61.0693V101.033ZM92.1884 87.4491C92.1884 92.8996 89.9539 98.6749 88.9305 101.033H80.4243C79.5146 93.2173 73.2961 86.9988 65.4801 86.0892V80.6857H92.1884V87.4491ZM92.5659 76.7191C93.3197 73.4704 95.881 70.9089 99.1299 70.1551V76.7191H92.5659Z" fill="white"/>
<path d="M75 53.918C70.0788 53.918 66.0752 57.9216 66.0752 62.8428C66.0752 67.764 70.0788 71.7676 75 71.7676C79.9212 71.7676 83.9248 67.764 83.9248 62.8428C83.9248 57.9216 79.9212 53.918 75 53.918ZM75 67.801C72.266 67.801 70.0418 65.5768 70.0418 62.8428C70.0418 60.1087 72.266 57.8845 75 57.8845C77.734 57.8845 79.9582 60.1087 79.9582 62.8428C79.9582 65.5768 77.734 67.801 75 67.801Z" fill="white"/>
</svg>
