<svg width="150" height="150" viewBox="0 0 150 150" fill="none" xmlns="http://www.w3.org/2000/svg">
<circle cx="75" cy="75" r="60" fill="#69B9FF"/>
<path d="M88.2345 57.5849L84.6922 46.3673C84.4351 45.5534 83.6799 45 82.8264 45H67.1742C66.3206 45 65.5655 45.5534 65.3084 46.3673L61.7661 57.5849C59.2515 58.2477 57.3916 60.5409 57.3916 63.2609V86.7391C57.3916 89.4591 59.2515 91.7523 61.7661 92.4151L65.3084 103.633C65.5655 104.447 66.3206 105 67.1742 105H82.8263C83.6799 105 84.435 104.447 84.6921 103.633L88.2344 92.4151C90.749 91.7523 92.6089 89.4591 92.6089 86.7391V63.2609C92.609 60.5409 90.7491 58.2477 88.2345 57.5849ZM68.6081 48.913H81.3925L84.0698 57.3913H65.9308L68.6081 48.913ZM81.3925 101.087H68.6081L65.9308 92.6087H84.0698L81.3925 101.087ZM88.696 86.7391C88.696 87.818 87.8183 88.6957 86.7395 88.6957H63.2612C62.1823 88.6957 61.3046 87.818 61.3046 86.7391V63.2609C61.3046 62.182 62.1823 61.3043 63.2612 61.3043H86.7395C87.8183 61.3043 88.696 62.182 88.696 63.2609V86.7391Z" fill="white"/>
<path d="M82.8257 73.0434H76.9561V67.1738C76.9561 66.0934 76.0801 65.2173 74.9995 65.2173C73.9189 65.2173 73.043 66.0933 73.043 67.1738V75C73.043 76.0804 73.9189 76.9565 74.9995 76.9565H82.8257C83.9061 76.9565 84.7822 76.0806 84.7822 75C84.7821 73.9195 83.9061 73.0434 82.8257 73.0434Z" fill="white"/>
</svg>
